<svg width="46" height="46" viewBox="0 0 46 46" fill="none" xmlns="http://www.w3.org/2000/svg">
<path d="M44.4374 22.375C44.4208 22.375 44.4043 22.3754 44.388 22.3763H23.625V1.5625C23.625 1.04481 23.2051 0.625 22.6875 0.625C16.6274 0.625 10.9301 2.98496 6.64499 7.26999C2.35996 11.5551 0 17.2524 0 23.3125C0 29.3725 2.35996 35.0698 6.64499 39.3549C10.9301 43.64 16.6274 45.9999 22.6875 45.9999C28.7475 45.9999 34.4448 43.64 38.7299 39.3549C43.015 35.0698 45.3749 29.3725 45.3749 23.3125C45.3749 22.7947 44.9551 22.375 44.4374 22.375ZM22.6875 44.1249C11.2114 44.1249 1.875 34.7885 1.875 23.3125C1.875 12.1509 10.7077 3.01328 21.75 2.5209V23.3138C21.75 23.6261 21.9032 23.9019 22.138 24.0722C22.1379 24.0725 22.1377 24.0728 22.1376 24.0731L38.9685 36.262C35.1522 41.0504 29.2724 44.1249 22.6875 44.1249ZM40.0702 34.7448L25.5804 24.2513H43.479C43.3067 28.1144 42.0752 31.7063 40.0702 34.7448Z" fill="#7772F1"/>
</svg>
